<?xml version="1.0" encoding="UTF-8"?>
<svg width="1920px" height="758px" viewBox="0 0 1920 758" version="1.1" xmlns="http://www.w3.org/2000/svg" xmlns:xlink="http://www.w3.org/1999/xlink">
    <!-- Generator: Sketch 56.2 (81672) - https://sketch.com -->
    <title>Group 31</title>
    <desc>Created with Sketch.</desc>
    <g id="Page_New" stroke="none" stroke-width="1" fill="none" fill-rule="evenodd">
        <g id="Page-Pacote">
            <g id="bg-topo" transform="translate(979.500000, 20.000000) rotate(-10.000000) translate(-979.500000, -20.000000) translate(-302.000000, -1256.000000)">
                <g id="Group-31" transform="translate(0.000000, -0.000000)">
                    <path d="M301.230358,312.221143 L1933.70246,305 C2259.57875,602.18512 2342.98589,931.412043 2183.92388,1292.68077 C1945.33086,1834.58386 1577.23455,1368.86396 1338.92513,1919.47661 C1180.05219,2286.5517 847.804981,2342.22215 342.183493,2086.48794 L301.230358,312.221143 Z" id="wave" fill="#ed3237" transform="translate(1281.706926, 1274.500000) scale(-1, 1) rotate(20.000000) translate(-1281.706926, -1274.500000) "></path>
                    <path d="M301,313.651593 L1933.4721,306.430451 C2259.34839,603.615571 2342.75553,932.842494 2183.69352,1294.11122 C1945.10051,1836.01431 1577.00419,1370.29441 1338.69478,1920.90706 C1179.82184,2287.98215 847.574623,2343.6526 341.953135,2087.91839 L301,313.651593 Z" id="wave" stroke="#ed3237" transform="translate(1281.476567, 1275.930451) scale(-1, 1) rotate(23.000000) translate(-1281.476567, -1275.930451) "></path>
                    <path d="M301,313.651593 L1933.4721,306.430451 C2259.34839,603.615571 2342.75553,932.842494 2183.69352,1294.11122 C1945.10051,1836.01431 1577.00419,1370.29441 1338.69478,1920.90706 C1179.82184,2287.98215 847.574623,2343.6526 341.953135,2087.91839 L301,313.651593 Z" id="wave" stroke="#ed3237" transform="translate(1281.476567, 1275.930451) scale(-1, 1) rotate(17.000000) translate(-1281.476567, -1275.930451) "></path>
                </g>
            </g>
        </g>
    </g>
</svg>